<mxfile host="app.diagrams.net" modified="2024-02-01T20:09:28.334Z" agent="Mozilla/5.0 (Macintosh; Intel Mac OS X 10_15_7) AppleWebKit/605.1.15 (KHTML, like Gecko) Version/17.2.1 Safari/605.1.15" version="23.1.1" etag="n6WNI7g2v39xVj9dHmWk" type="github">
  <diagram name="Page-1" id="8-5MwBZd1cwObo4UVsrx">
    <mxGraphModel>
      <root>
        <mxCell id="0" />
        <mxCell id="1" parent="0" />
      </root>
    </mxGraphModel>
  </diagram>
</mxfile>
